<svg width="50" height="50" viewBox="0 0 50 50" fill="none" xmlns="http://www.w3.org/2000/svg">
<circle cx="25" cy="25" r="24.5" fill="#C9AC7A" stroke="black"/>
<path d="M23.475 17.275V17.8C22.725 17.8 22.2417 17.875 22.025 18.025C21.825 18.1583 21.8417 18.4 22.075 18.75L31.975 33.225C32.3083 33.6917 32.575 34.0083 32.775 34.175C32.975 34.3417 33.2417 34.4417 33.575 34.475V35C33.2417 34.9833 32.7583 34.9667 32.125 34.95C31.4917 34.9167 30.8333 34.9 30.15 34.9C29.4 34.9 28.6333 34.9167 27.85 34.95C27.0833 34.9667 26.5083 34.9833 26.125 35V34.475C26.8917 34.475 27.3833 34.425 27.6 34.325C27.8333 34.2083 27.8333 33.975 27.6 33.625L17.675 19.05C17.3583 18.5667 17.1 18.2417 16.9 18.075C16.7 17.9083 16.425 17.8167 16.075 17.8V17.275C16.425 17.2917 16.9333 17.3167 17.6 17.35C18.2833 17.3667 18.9667 17.375 19.65 17.375C20.4 17.375 21.1167 17.3667 21.8 17.35C22.5 17.3167 23.0583 17.2917 23.475 17.275ZM23.7 26.1C23.7 26.1 23.7167 26.1583 23.75 26.275C23.7833 26.375 23.8167 26.4833 23.85 26.6C23.8833 26.7 23.9 26.75 23.9 26.75L21.4 30.175C20.7333 31.075 20.3583 31.8417 20.275 32.475C20.1917 33.0917 20.3333 33.575 20.7 33.925C21.0833 34.2583 21.6417 34.45 22.375 34.5V35C22.1417 34.9833 21.8417 34.975 21.475 34.975C21.125 34.9583 20.75 34.95 20.35 34.95C19.9667 34.9333 19.6 34.925 19.25 34.925C18.9167 34.925 18.6417 34.925 18.425 34.925C17.9583 34.925 17.525 34.9333 17.125 34.95C16.725 34.95 16.3917 34.9667 16.125 35V34.5C16.7083 34.3 17.3 33.95 17.9 33.45C18.5 32.9333 19.1167 32.2667 19.75 31.45L23.7 26.1ZM32.45 17.3V17.8C31.9 17.95 31.35 18.2667 30.8 18.75C30.2667 19.2333 29.7667 19.7917 29.3 20.425L25.25 25.825C25.25 25.825 25.2167 25.7167 25.15 25.5C25.1 25.2833 25.075 25.175 25.075 25.175L27.65 21.7C28.2833 20.9 28.6583 20.2167 28.775 19.65C28.9083 19.0833 28.8167 18.6417 28.5 18.325C28.1833 18.0083 27.6833 17.8333 27 17.8V17.3C27.3167 17.3167 27.6667 17.3333 28.05 17.35C28.4333 17.35 28.8083 17.3583 29.175 17.375C29.5583 17.375 29.8833 17.375 30.15 17.375C30.6333 17.375 31.075 17.3667 31.475 17.35C31.875 17.3333 32.2 17.3167 32.45 17.3Z" fill="black"/>
</svg>
